<svg xmlns="http://www.w3.org/2000/svg"  viewBox="0 0 48 48" width="144px" height="144px"><path fill="#f44336" d="M34,6c-4.176,0-7.852,2.137-10,5.371C21.852,8.137,18.176,6,14,6C7.371,6,2,11.371,2,18 c0,11.941,22,24,22,24s22-11.953,22-24C46,11.371,40.629,6,34,6"/><path fill="#ffe082" d="M21.001 16c-1.096 0-1.978 1.125-1.978 2.5s.882 2.5 1.978 2.5c1.096 0 1.978-1.125 1.978-2.5S22.097 16 21.001 16zM27.517 27.008c-.614-.405-1.248-.824-1.539-1.63-.562-1.565-.987-1.903-1.979-1.948-.992.045-1.417.383-1.979 1.948-.291.806-.925 1.225-1.539 1.63-.763.504-1.552 1.025-1.552 2.206 0 1.254 1.27 2.786 2.753 2.786.634 0 1.111-.129 1.531-.245.277-.074.526-.13.786-.153.26.023.509.079.786.153C25.206 31.871 25.683 32 26.317 32c1.482 0 2.753-1.532 2.753-2.786C29.07 28.033 28.281 27.512 27.517 27.008zM16.973 21c-1.096 0-1.978 1.125-1.978 2.5s.882 2.5 1.978 2.5c1.096 0 1.978-1.125 1.978-2.5S18.069 21 16.973 21zM27.041 16c-1.096 0-1.979 1.125-1.979 2.5s.882 2.5 1.979 2.5c1.096 0 1.979-1.125 1.979-2.5S28.138 16 27.041 16zM31.048 21.047c-1.096 0-1.979 1.125-1.979 2.5s.882 2.5 1.979 2.5 1.979-1.125 1.979-2.5S32.145 21.047 31.048 21.047z"/></svg>